<svg id="a8ba6327-616f-4c67-b034-26cfbc302f12" height="512" viewBox="0 0 60 60" width="512" xmlns="http://www.w3.org/2000/svg" data-name="Icons"><path d="m45 4v5h-44v-5a3 3 0 0 1 3-3h38a3 3 0 0 1 3 3z" fill="#4482c3"/><path d="m45 9v23a3 3 0 0 1 -3 3h-38a3 3 0 0 1 -3-3v-23z" fill="#b0d3f0"/><path d="m41 6h-8a1 1 0 0 1 0-2h8a1 1 0 0 1 0 2z" fill="#fff"/><circle cx="5" cy="5" fill="#f3d55b" r="1"/><circle cx="9" cy="5" fill="#ff5364" r="1"/><circle cx="13" cy="5" fill="#65ddb9" r="1"/><path d="m52 16v5h-44v-5a3 3 0 0 1 3-3h38a3 3 0 0 1 3 3z" fill="#4482c3"/><path d="m52 21v23a3 3 0 0 1 -3 3h-38a3 3 0 0 1 -3-3v-23z" fill="#90bae1"/><path d="m48 18h-8a1 1 0 0 1 0-2h8a1 1 0 0 1 0 2z" fill="#fff"/><circle cx="12" cy="17" fill="#f3d55b" r="1"/><circle cx="16" cy="17" fill="#ff5364" r="1"/><circle cx="20" cy="17" fill="#65ddb9" r="1"/><path d="m59 28v5h-44v-5a3 3 0 0 1 3-3h38a3 3 0 0 1 3 3z" fill="#4482c3"/><path d="m59 33v23a3 3 0 0 1 -3 3h-38a3 3 0 0 1 -3-3v-23z" fill="#b0d3f0"/><path d="m55 30h-8a1 1 0 0 1 0-2h8a1 1 0 0 1 0 2z" fill="#fff"/><circle cx="19" cy="29" fill="#f3d55b" r="1"/><circle cx="23" cy="29" fill="#ff5364" r="1"/><circle cx="27" cy="29" fill="#65ddb9" r="1"/><path d="m22 39h-2a1 1 0 0 1 0-2h2a1 1 0 0 1 0 2z" fill="#fb7b76"/><path d="m43 39h-17a1 1 0 0 1 0-2h17a1 1 0 0 1 0 2z" fill="#90bae1"/><path d="m22 43h-2a1 1 0 0 1 0-2h2a1 1 0 0 1 0 2z" fill="#fb7b76"/><path d="m35 43h-9a1 1 0 0 1 0-2h9a1 1 0 0 1 0 2z" fill="#90bae1"/><path d="m22 47h-2a1 1 0 0 1 0-2h2a1 1 0 0 1 0 2z" fill="#fb7b76"/><path d="m38 47h-12a1 1 0 0 1 0-2h12a1 1 0 0 1 0 2z" fill="#90bae1"/><path d="m22 51h-2a1 1 0 0 1 0-2h2a1 1 0 0 1 0 2z" fill="#fb7b76"/><path d="m43 51h-17a1 1 0 0 1 0-2h17a1 1 0 0 1 0 2z" fill="#90bae1"/><path d="m22 55h-2a1 1 0 0 1 0-2h2a1 1 0 0 1 0 2z" fill="#fb7b76"/><g fill="#90bae1"><path d="m53 55h-27a1 1 0 0 1 0-2h27a1 1 0 0 1 0 2z"/><path d="m52 39h-5a1 1 0 0 1 0-2h5a1 1 0 0 1 0 2z"/><path d="m54 47h-12a1 1 0 0 1 0-2h12a1 1 0 0 1 0 2z"/></g></svg>